<mxfile host="65bd71144e">
    <diagram id="j7Dt2OIauxqPKwetuu4g" name="Page-1">
        <mxGraphModel dx="1018" dy="591" grid="1" gridSize="10" guides="1" tooltips="1" connect="1" arrows="1" fold="1" page="1" pageScale="1" pageWidth="670" pageHeight="780" math="0" shadow="0">
            <root>
                <mxCell id="0"/>
                <mxCell id="1" parent="0"/>
                <mxCell id="2" value="" style="edgeStyle=none;html=1;" edge="1" parent="1" source="3" target="6">
                    <mxGeometry relative="1" as="geometry"/>
                </mxCell>
                <mxCell id="3" value="Начало" style="rounded=1;whiteSpace=wrap;html=1;arcSize=50;fillColor=#e51400;fontColor=#ffffff;strokeColor=#B20000;" vertex="1" parent="1">
                    <mxGeometry x="25" y="20" width="130" height="40" as="geometry"/>
                </mxCell>
                <mxCell id="4" value="Конец" style="rounded=1;whiteSpace=wrap;html=1;arcSize=50;fillColor=#e51400;fontColor=#ffffff;strokeColor=#B20000;" vertex="1" parent="1">
                    <mxGeometry x="15" y="880" width="135" height="40" as="geometry"/>
                </mxCell>
                <mxCell id="5" value="" style="edgeStyle=none;html=1;" edge="1" parent="1" source="6" target="7">
                    <mxGeometry relative="1" as="geometry"/>
                </mxCell>
                <mxCell id="6" value="N, D" style="shape=parallelogram;perimeter=parallelogramPerimeter;whiteSpace=wrap;html=1;fixedSize=1;fillColor=#0050ef;fontColor=#ffffff;strokeColor=#001DBC;" vertex="1" parent="1">
                    <mxGeometry x="35" y="90" width="110" height="40" as="geometry"/>
                </mxCell>
                <mxCell id="7" value="M=0&lt;br&gt;size = 2^N&lt;br&gt;fl(size)&amp;nbsp;&lt;br&gt;CodeBook[size]" style="rounded=0;whiteSpace=wrap;html=1;fillColor=#6a00ff;fontColor=#ffffff;strokeColor=#3700CC;" vertex="1" parent="1">
                    <mxGeometry x="15" y="150" width="145" height="60" as="geometry"/>
                </mxCell>
                <mxCell id="8" value="" style="edgeStyle=none;html=1;exitX=0.5;exitY=1;exitDx=0;exitDy=0;entryX=0.5;entryY=0;entryDx=0;entryDy=0;" edge="1" parent="1" source="13" target="12">
                    <mxGeometry relative="1" as="geometry">
                        <mxPoint x="302.5" y="239.38" as="sourcePoint"/>
                        <mxPoint x="302.5" y="259.38" as="targetPoint"/>
                    </mxGeometry>
                </mxCell>
                <mxCell id="9" value="" style="endArrow=classic;html=1;exitX=1;exitY=1;exitDx=0;exitDy=0;entryX=0;entryY=0.5;entryDx=0;entryDy=0;" edge="1" parent="1" source="7" target="13">
                    <mxGeometry width="50" height="50" relative="1" as="geometry">
                        <mxPoint x="145" y="350" as="sourcePoint"/>
                        <mxPoint x="202.89473684210532" y="213.15789473684208" as="targetPoint"/>
                    </mxGeometry>
                </mxCell>
                <mxCell id="10" value="Да" style="edgeStyle=segmentEdgeStyle;endArrow=classic;html=1;exitX=1;exitY=0.75;exitDx=0;exitDy=0;entryX=0.5;entryY=0;entryDx=0;entryDy=0;" edge="1" parent="1" source="14" target="25">
                    <mxGeometry width="50" height="50" relative="1" as="geometry">
                        <mxPoint x="247.5" y="149.3800000000001" as="sourcePoint"/>
                        <mxPoint x="83" y="520" as="targetPoint"/>
                    </mxGeometry>
                </mxCell>
                <mxCell id="11" value="" style="edgeStyle=none;html=1;" edge="1" parent="1" source="12" target="16">
                    <mxGeometry relative="1" as="geometry"/>
                </mxCell>
                <mxCell id="12" value="&lt;div&gt;zero = fl.head-&amp;gt;x;&lt;/div&gt;&lt;div&gt;&amp;nbsp; CodeBook[M] = zero&lt;/div&gt;&lt;div&gt;&lt;span&gt;fl.rm_first();&lt;/span&gt;&lt;/div&gt;&lt;div&gt;&lt;span&gt;M++;&lt;/span&gt;&lt;/div&gt;" style="rounded=0;whiteSpace=wrap;html=1;fillColor=#0050ef;fontColor=#ffffff;strokeColor=#001DBC;" vertex="1" parent="1">
                    <mxGeometry x="252.5" y="260" width="125" height="90" as="geometry"/>
                </mxCell>
                <mxCell id="13" value="while (fl.size&amp;gt;0)" style="shape=loopLimit;whiteSpace=wrap;html=1;fillColor=#60a917;fontColor=#ffffff;strokeColor=#2D7600;" vertex="1" parent="1">
                    <mxGeometry x="235" y="199.38" width="160" height="30" as="geometry"/>
                </mxCell>
                <mxCell id="14" value="" style="shape=loopLimit;whiteSpace=wrap;html=1;rotation=-180;fillColor=#60a917;fontColor=#ffffff;strokeColor=#2D7600;" vertex="1" parent="1">
                    <mxGeometry x="232.5" y="700.62" width="160" height="30" as="geometry"/>
                </mxCell>
                <mxCell id="15" value="" style="edgeStyle=none;html=1;fontSize=11;entryX=0.5;entryY=0;entryDx=0;entryDy=0;" edge="1" parent="1" source="16" target="18">
                    <mxGeometry relative="1" as="geometry">
                        <mxPoint x="308.6821903787102" y="500.61924257932424" as="targetPoint"/>
                    </mxGeometry>
                </mxCell>
                <mxCell id="16" value="curNode:=&lt;br&gt;fl.getFirst, &lt;br&gt;NULL, &lt;br&gt;curNode=curNode.getNext" style="shape=hexagon;perimeter=hexagonPerimeter2;whiteSpace=wrap;html=1;fixedSize=1;fillColor=#a20025;fontColor=#ffffff;strokeColor=#6F0000;" vertex="1" parent="1">
                    <mxGeometry x="242.5" y="410" width="152.5" height="80.62" as="geometry"/>
                </mxCell>
                <mxCell id="17" value="Да" style="edgeStyle=none;html=1;fontSize=11;" edge="1" parent="1" source="18" target="19">
                    <mxGeometry relative="1" as="geometry"/>
                </mxCell>
                <mxCell id="18" value="&lt;font style=&quot;font-size: 11px&quot;&gt;hamming(curNode.x, CodeBook[M - 1]) &amp;lt; D&lt;/font&gt;" style="rhombus;whiteSpace=wrap;html=1;fillColor=#fa6800;fontColor=#000000;strokeColor=#C73500;" vertex="1" parent="1">
                    <mxGeometry x="205" y="490.62" width="220" height="119.38" as="geometry"/>
                </mxCell>
                <mxCell id="19" value="fl.rm_by_node(curNode);" style="rounded=0;whiteSpace=wrap;html=1;fontSize=11;fillColor=#0050ef;fontColor=#ffffff;strokeColor=#001DBC;" vertex="1" parent="1">
                    <mxGeometry x="252.5" y="640.62" width="126.25" height="30" as="geometry"/>
                </mxCell>
                <mxCell id="20" value="" style="edgeStyle=elbowEdgeStyle;elbow=horizontal;endArrow=classic;html=1;fontSize=11;entryX=0;entryY=0.5;entryDx=0;entryDy=0;exitX=0;exitY=0.5;exitDx=0;exitDy=0;" edge="1" parent="1" source="19" target="16">
                    <mxGeometry width="50" height="50" relative="1" as="geometry">
                        <mxPoint x="295" y="660.62" as="sourcePoint"/>
                        <mxPoint x="405" y="490.62" as="targetPoint"/>
                        <Array as="points">
                            <mxPoint x="195" y="570.62"/>
                        </Array>
                    </mxGeometry>
                </mxCell>
                <mxCell id="21" value="" style="endArrow=classic;html=1;fontSize=11;exitX=0;exitY=0.5;exitDx=0;exitDy=0;" edge="1" parent="1" source="18">
                    <mxGeometry width="50" height="50" relative="1" as="geometry">
                        <mxPoint x="187.5" y="540.62" as="sourcePoint"/>
                        <mxPoint x="205.99999999999977" y="450" as="targetPoint"/>
                    </mxGeometry>
                </mxCell>
                <mxCell id="22" value="Нет" style="edgeLabel;html=1;align=center;verticalAlign=middle;resizable=0;points=[];fontSize=11;" vertex="1" connectable="0" parent="21">
                    <mxGeometry x="-0.3485" y="-2" relative="1" as="geometry">
                        <mxPoint as="offset"/>
                    </mxGeometry>
                </mxCell>
                <mxCell id="23" value="" style="edgeStyle=elbowEdgeStyle;elbow=horizontal;endArrow=classic;html=1;fontSize=11;exitX=1;exitY=0.5;exitDx=0;exitDy=0;entryX=0;entryY=1;entryDx=0;entryDy=0;" edge="1" parent="1" source="16" target="14">
                    <mxGeometry width="50" height="50" relative="1" as="geometry">
                        <mxPoint x="187.5" y="540.62" as="sourcePoint"/>
                        <mxPoint x="327.5" y="730.6199999999999" as="targetPoint"/>
                        <Array as="points">
                            <mxPoint x="447.5" y="580.62"/>
                        </Array>
                    </mxGeometry>
                </mxCell>
                <mxCell id="24" value="" style="edgeStyle=none;html=1;fontFamily=Helvetica;fontSize=11;" edge="1" parent="1" source="25" target="26">
                    <mxGeometry relative="1" as="geometry"/>
                </mxCell>
                <mxCell id="25" value="i:= 0, M" style="shape=hexagon;perimeter=hexagonPerimeter2;whiteSpace=wrap;html=1;fixedSize=1;fontSize=11;fillColor=#a20025;fontColor=#ffffff;strokeColor=#6F0000;" vertex="1" parent="1">
                    <mxGeometry x="21.25" y="720" width="122.5" height="50" as="geometry"/>
                </mxCell>
                <mxCell id="26" value="CodeBook[i]" style="shape=parallelogram;perimeter=parallelogramPerimeter;whiteSpace=wrap;html=1;fixedSize=1;fontFamily=Helvetica;fontSize=11;fillColor=#6a00ff;fontColor=#ffffff;strokeColor=#3700CC;" vertex="1" parent="1">
                    <mxGeometry x="31.880000000000003" y="790" width="101.25" height="35" as="geometry"/>
                </mxCell>
                <mxCell id="27" value="" style="edgeStyle=elbowEdgeStyle;elbow=horizontal;endArrow=classic;html=1;fontFamily=Helvetica;fontSize=11;exitX=0;exitY=0.5;exitDx=0;exitDy=0;entryX=0;entryY=0.5;entryDx=0;entryDy=0;" edge="1" parent="1" source="26" target="25">
                    <mxGeometry width="50" height="50" relative="1" as="geometry">
                        <mxPoint x="95" y="820" as="sourcePoint"/>
                        <mxPoint x="145" y="770" as="targetPoint"/>
                        <Array as="points">
                            <mxPoint x="21" y="770"/>
                        </Array>
                    </mxGeometry>
                </mxCell>
                <mxCell id="28" value="" style="edgeStyle=segmentEdgeStyle;endArrow=classic;html=1;fontFamily=Helvetica;fontSize=11;exitX=1;exitY=0.5;exitDx=0;exitDy=0;entryX=1;entryY=0.5;entryDx=0;entryDy=0;" edge="1" parent="1" source="25" target="4">
                    <mxGeometry width="50" height="50" relative="1" as="geometry">
                        <mxPoint x="95" y="820" as="sourcePoint"/>
                        <mxPoint x="125" y="890" as="targetPoint"/>
                        <Array as="points">
                            <mxPoint x="165" y="745"/>
                            <mxPoint x="165" y="900"/>
                        </Array>
                    </mxGeometry>
                </mxCell>
            </root>
        </mxGraphModel>
    </diagram>
</mxfile>